<?xml version="1.0" encoding="utf-8"?>
<!-- Designed by Vexels.com - 2018 All Rights Reserved - https://vexels.com/terms-and-conditions/  -->
<svg version="1.1" id="Layer_1" xmlns="http://www.w3.org/2000/svg" xmlns:xlink="http://www.w3.org/1999/xlink" x="0px" y="0px"
	 viewBox="0 0 1200 1200" enable-background="new 0 0 1200 1200" xml:space="preserve">
<g>
	<g>
		<g>
			<g>
				<path fill="#ED8700" d="M495.933,295.708H245.802c-15.776,0-28.564-12.789-28.564-28.564V192.27
					c0-15.776,12.789-28.564,28.564-28.564h250.131V295.708z"/>
				<rect x="262.209" y="163.706" fill="#FFFFFF" width="15.317" height="132.002"/>
				<rect x="291.811" y="163.706" fill="#FFFFFF" width="17.674" height="132.002"/>
				<g>
					<path fill="#FFA329" d="M495.933,185.478h395.772c1.311,0,2.375-1.063,2.375-2.375v0c0-10.713-8.684-19.397-19.397-19.397
						l-388.988,0c-9.401,0-17.023,7.621-17.023,17.022c0,25.321,0,72.636,0,97.958c0,9.401,7.621,17.022,17.023,17.022h388.988
						c10.713,0,19.397-8.684,19.397-19.397v0c0-1.311-1.063-2.375-2.375-2.375H495.933V185.478z"/>
					<rect x="495.933" y="185.478" fill="#FFFFFF" width="375.132" height="88.458"/>
					<g>
						<g>
							<g>
								<rect x="495.933" y="199.858" fill="#BFBEBB" width="375.133" height="2.177"/>
							</g>
						</g>
						<g>
							<g>
								<rect x="495.933" y="214.238" fill="#BFBEBB" width="375.133" height="2.177"/>
							</g>
						</g>
						<g>
							<g>
								<rect x="495.933" y="228.618" fill="#BFBEBB" width="375.133" height="2.177"/>
							</g>
						</g>
						<g>
							<g>
								<rect x="495.933" y="242.999" fill="#BFBEBB" width="375.133" height="2.177"/>
							</g>
						</g>
						<g>
							<g>
								<rect x="495.933" y="257.379" fill="#BFBEBB" width="375.133" height="2.177"/>
							</g>
						</g>
						<g>
							<g>
								<rect x="495.933" y="271.759" fill="#BFBEBB" width="375.133" height="2.177"/>
							</g>
						</g>
						<g>
							<g>
								<rect x="495.933" y="185.478" fill="#BFBEBB" width="375.133" height="2.177"/>
							</g>
						</g>
					</g>
					<rect x="495.444" y="185.478" fill="#7C7C7C" width="5.013" height="88.458"/>
				</g>
			</g>
		</g>
		<g>
			<g>
				<path fill="#257284" d="M592.505,564.134H913.04c13.589,0,24.605-11.016,24.605-24.605v-64.496
					c0-13.589-11.016-24.605-24.605-24.605H592.505V564.134z"/>
				<rect x="885.712" y="450.428" fill="#FFFFFF" width="13.194" height="113.706"/>
				<rect x="858.183" y="450.428" fill="#FFFFFF" width="15.224" height="113.706"/>
				<g>
					<path fill="#3EA8BA" d="M592.505,469.182H251.589c-1.13,0-2.045-0.916-2.045-2.045v0c0-9.228,7.481-16.709,16.709-16.709
						l335.073,0c8.098,0,14.663,6.565,14.663,14.663c0,21.812,0,62.569,0,84.38c0,8.098-6.565,14.663-14.663,14.663H266.252
						c-9.228,0-16.709-7.481-16.709-16.709v0c0-1.13,0.916-2.045,2.045-2.045h340.916V469.182z"/>
					<rect x="269.368" y="469.182" fill="#FFFFFF" width="323.137" height="76.198"/>
					<g>
						<g>
							<g>
								<rect x="269.368" y="481.569" fill="#BFBEBB" width="323.138" height="1.875"/>
							</g>
						</g>
						<g>
							<g>
								<rect x="269.368" y="493.956" fill="#BFBEBB" width="323.138" height="1.875"/>
							</g>
						</g>
						<g>
							<g>
								<rect x="269.368" y="506.343" fill="#BFBEBB" width="323.138" height="1.875"/>
							</g>
						</g>
						<g>
							<g>
								<rect x="269.368" y="518.73" fill="#BFBEBB" width="323.138" height="1.875"/>
							</g>
						</g>
						<g>
							<g>
								<rect x="269.368" y="531.117" fill="#BFBEBB" width="323.138" height="1.875"/>
							</g>
						</g>
						<g>
							<g>
								<rect x="269.368" y="543.504" fill="#BFBEBB" width="323.138" height="1.875"/>
							</g>
						</g>
						<g>
							<g>
								<rect x="269.368" y="469.182" fill="#BFBEBB" width="323.138" height="1.875"/>
							</g>
						</g>
					</g>
					<rect x="588.608" y="469.182" fill="#7C7C7C" width="4.319" height="76.198"/>
				</g>
			</g>
		</g>
		<g>
			<g>
				<path fill="#ED5879" d="M572.394,677.84h320.534c13.589,0,24.605-11.016,24.605-24.605v-64.496
					c0-13.589-11.016-24.605-24.605-24.605H572.394V677.84z"/>
				<g>
					<path fill="#F9789A" d="M639.728,582.888h-408.25c-1.13,0-2.045-0.916-2.045-2.045l0,0c0-9.228,7.481-16.709,16.709-16.709
						h402.406c8.098,0,14.663,6.565,14.663,14.663c0,21.812,0,62.569,0,84.38c0,8.098-6.565,14.663-14.663,14.663H246.141
						c-9.228,0-16.709-7.481-16.709-16.709v0c0-1.13,0.916-2.045,2.045-2.045h408.25V582.888z"/>
					<rect x="249.257" y="582.888" fill="#FFFFFF" width="391.075" height="76.198"/>
					<g>
						<g>
							<g>
								<rect x="249.257" y="595.275" fill="#BFBEBB" width="391.076" height="1.875"/>
							</g>
						</g>
						<g>
							<g>
								<rect x="249.257" y="607.662" fill="#BFBEBB" width="391.076" height="1.875"/>
							</g>
						</g>
						<g>
							<g>
								<rect x="249.257" y="620.049" fill="#BFBEBB" width="391.076" height="1.875"/>
							</g>
						</g>
						<g>
							<g>
								<rect x="249.257" y="632.436" fill="#BFBEBB" width="391.076" height="1.875"/>
							</g>
						</g>
						<g>
							<g>
								<rect x="249.257" y="644.823" fill="#BFBEBB" width="391.076" height="1.875"/>
							</g>
						</g>
						<g>
							<g>
								<rect x="249.257" y="657.21" fill="#BFBEBB" width="391.076" height="1.875"/>
							</g>
						</g>
						<g>
							<g>
								<rect x="249.257" y="582.888" fill="#BFBEBB" width="391.076" height="1.875"/>
							</g>
						</g>
					</g>
					<rect x="636.014" y="582.888" fill="#25BA82" width="4.319" height="76.198"/>
				</g>
			</g>
		</g>
		<rect x="284.508" y="295.708" fill="#25BA82" width="577.951" height="154.72"/>
		<path fill="#FFA329" d="M980.75,789.943H219.25c-11.364,0-20.576-9.212-20.576-20.576v-70.951
			c0-11.364,9.212-20.576,20.576-20.576H980.75c11.364,0,20.576,9.212,20.576,20.576v70.951
			C1001.325,780.731,992.113,789.943,980.75,789.943z"/>
		<rect x="367.506" y="295.708" fill="#FFFFFF" width="89.071" height="154.72"/>
		<rect x="698.487" y="295.708" fill="#FFFFFF" width="28.909" height="154.72"/>
		<rect x="764.278" y="295.708" fill="#FFFFFF" width="28.909" height="154.72"/>
		<polygon opacity="0.2" points="482.462,323.906 284.508,295.708 862.459,295.708 		"/>
		<g>
			<rect x="284.508" y="1017.355" fill="#257284" width="629.705" height="115.801"/>
			<rect x="726.735" y="1017.355" fill="#FFFFFF" width="97.047" height="115.801"/>
			<rect x="431.666" y="1017.355" fill="#FFFFFF" width="31.498" height="115.801"/>
			<rect x="359.983" y="1017.355" fill="#FFFFFF" width="31.498" height="115.801"/>
			<polygon opacity="0.2" points="514.368,1057.087 914.213,1017.355 284.508,1017.355 			"/>
		</g>
		<polygon opacity="0.2" points="615.988,482.507 284.508,450.428 862.459,450.428 		"/>
		<g>
			<g>
				<path fill="#25BA82" d="M593.326,903.649h305.969c12.553,0,22.73-10.177,22.73-22.73v-68.246c0-12.553-10.177-22.73-22.73-22.73
					H593.326V903.649z"/>
				<rect x="843.544" y="789.943" fill="#FFFFFF" width="11.26" height="113.706"/>
				<rect x="820.051" y="789.943" fill="#FFFFFF" width="12.992" height="113.706"/>
				<g>
					<path fill="#53EAAD" d="M593.326,808.697H302.394c-0.964,0-1.746-0.916-1.746-2.045v0c0-9.228,6.384-16.709,14.259-16.709
						l285.945,0c6.911,0,12.513,6.565,12.513,14.663c0,21.812,0,62.569,0,84.38c0,8.098-5.602,14.663-12.513,14.663H314.907
						c-7.875,0-14.259-7.481-14.259-16.709v0c0-1.13,0.782-2.045,1.746-2.045h290.932V808.697z"/>
					<rect x="317.566" y="808.697" fill="#FFFFFF" width="275.76" height="76.198"/>
					<g>
						<g>
							<g>
								<rect x="317.566" y="821.084" fill="#BFBEBB" width="275.76" height="1.875"/>
							</g>
						</g>
						<g>
							<g>
								<rect x="317.566" y="833.471" fill="#BFBEBB" width="275.76" height="1.875"/>
							</g>
						</g>
						<g>
							<g>
								<rect x="317.566" y="845.858" fill="#BFBEBB" width="275.76" height="1.875"/>
							</g>
						</g>
						<g>
							<g>
								<rect x="317.566" y="858.245" fill="#BFBEBB" width="275.76" height="1.875"/>
							</g>
						</g>
						<g>
							<g>
								<rect x="317.566" y="870.632" fill="#BFBEBB" width="275.76" height="1.875"/>
							</g>
						</g>
						<g>
							<g>
								<rect x="317.566" y="883.019" fill="#BFBEBB" width="275.76" height="1.875"/>
							</g>
						</g>
						<g>
							<g>
								<rect x="317.566" y="808.697" fill="#BFBEBB" width="275.76" height="1.875"/>
							</g>
						</g>
					</g>
					<rect x="590" y="808.697" fill="#7C7C7C" width="3.685" height="76.198"/>
				</g>
			</g>
		</g>
		<polygon opacity="0.2" points="613.366,834.409 308.893,789.943 899.295,789.943 		"/>
		<rect x="704.727" y="585.701" fill="#FFFFFF" width="120.696" height="72.447"/>
		<polygon opacity="0.2" points="663.211,601.112 242.968,564.134 896.508,564.134 		"/>
		<g>
			<g>
				<path fill="#ED5879" d="M590.446,163.706H910.98c13.589,0,24.605-11.016,24.605-24.605V74.605
					C935.585,61.016,924.569,50,910.98,50H590.446V163.706z"/>
				<g>
					<path fill="#F9789A" d="M614.186,68.754h-408.25c-1.13,0-2.045-0.916-2.045-2.045v0c0-9.228,7.481-16.709,16.709-16.709
						l402.406,0c8.098,0,14.663,6.565,14.663,14.663c0,21.812,0,62.569,0,84.38c0,8.098-6.565,14.663-14.663,14.663H220.599
						c-9.228,0-16.709-7.481-16.709-16.709v0c0-1.13,0.916-2.045,2.045-2.045h408.25V68.754z"/>
					<rect x="223.715" y="68.754" fill="#FFFFFF" width="391.075" height="76.198"/>
					<g>
						<g>
							<g>
								<rect x="223.715" y="81.141" fill="#BFBEBB" width="391.076" height="1.875"/>
							</g>
						</g>
						<g>
							<g>
								<rect x="223.715" y="93.528" fill="#BFBEBB" width="391.076" height="1.875"/>
							</g>
						</g>
						<g>
							<g>
								<rect x="223.715" y="105.915" fill="#BFBEBB" width="391.076" height="1.875"/>
							</g>
						</g>
						<g>
							<g>
								<rect x="223.715" y="118.302" fill="#BFBEBB" width="391.076" height="1.875"/>
							</g>
						</g>
						<g>
							<g>
								<rect x="223.715" y="130.689" fill="#BFBEBB" width="391.076" height="1.875"/>
							</g>
						</g>
						<g>
							<g>
								<rect x="223.715" y="143.076" fill="#BFBEBB" width="391.076" height="1.875"/>
							</g>
						</g>
						<g>
							<g>
								<rect x="223.715" y="68.754" fill="#BFBEBB" width="391.076" height="1.875"/>
							</g>
						</g>
					</g>
					<rect x="610.472" y="68.754" fill="#25BA82" width="4.319" height="76.198"/>
				</g>
			</g>
		</g>
		<rect x="748.321" y="50" fill="#FFFFFF" width="22.669" height="113.706"/>
		<rect x="799.658" y="50" fill="#FFFFFF" width="22.669" height="113.706"/>
		<polygon opacity="0.2" points="663.211,200.684 242.968,163.706 896.508,163.706 		"/>
		<g>
			<g>
				<path fill="#ED5879" d="M594.683,1017.355H223.28c-13.589,0-24.605-11.016-24.605-24.605v-64.496
					c0-13.589,11.016-24.605,24.605-24.605h371.403V1017.355z"/>
				<g>
					<path fill="#F72D53" d="M527.349,922.403h408.25c1.13,0,2.045-0.916,2.045-2.045l0,0c0-9.228-7.481-16.709-16.709-16.709
						l-402.406,0c-8.098,0-14.663,6.565-14.663,14.663c0,21.812,0,62.569,0,84.38c0,8.098,6.565,14.663,14.663,14.663h402.406
						c9.228,0,16.709-7.481,16.709-16.709v0c0-1.13-0.916-2.045-2.045-2.045h-408.25V922.403z"/>
					<rect x="526.745" y="922.403" fill="#FFFFFF" width="391.075" height="76.198"/>
					<g>
						<g>
							<g>
								<rect x="526.745" y="934.79" fill="#BFBEBB" width="391.076" height="1.875"/>
							</g>
						</g>
						<g>
							<g>
								<rect x="526.745" y="947.177" fill="#BFBEBB" width="391.076" height="1.875"/>
							</g>
						</g>
						<g>
							<g>
								<rect x="526.745" y="959.564" fill="#BFBEBB" width="391.076" height="1.875"/>
							</g>
						</g>
						<g>
							<g>
								<rect x="526.745" y="971.951" fill="#BFBEBB" width="391.076" height="1.875"/>
							</g>
						</g>
						<g>
							<g>
								<rect x="526.745" y="984.338" fill="#BFBEBB" width="391.076" height="1.875"/>
							</g>
						</g>
						<g>
							<g>
								<rect x="526.745" y="996.725" fill="#BFBEBB" width="391.076" height="1.875"/>
							</g>
						</g>
						<g>
							<g>
								<rect x="526.745" y="922.403" fill="#BFBEBB" width="391.076" height="1.875"/>
							</g>
						</g>
					</g>
					<rect x="526.745" y="922.403" fill="#5D5D5D" width="4.319" height="76.198"/>
				</g>
			</g>
		</g>
		<rect x="361.765" y="925.216" fill="#FFFFFF" width="120.696" height="72.447"/>
		<polygon opacity="0.2" points="613.366,947.177 924.109,903.649 308.893,903.649 		"/>
		<rect x="257.788" y="677.84" fill="#FFFFFF" width="132.652" height="112.103"/>
		<rect x="874.378" y="677.84" fill="#FFFFFF" width="22.668" height="112.103"/>
		<rect x="814.089" y="677.84" fill="#FFFFFF" width="22.668" height="112.103"/>
		<rect x="778.732" y="677.84" fill="#FFFFFF" width="22.668" height="112.103"/>
		<polygon opacity="0.2" points="652.097,718.1 260.673,677.84 914.213,677.84 		"/>
	</g>
	<polygon opacity="0.2" points="993.852,1150 200.762,1150 206.148,1133.156 999.238,1133.156 	"/>
</g>
</svg>
